# xmcd
#
# Track frame offsets: 
#        150
#        13049
#        27441
#        42794
#        55377
#        69742
#        81155
#        94553
#        111420
#        124879
#        140044
#        154367
#        167362
#        180419
#        193798
#        209295
#        224115
#        237368
#        252402
#        265790
#        279341
#        291408
#        303228
#        315561
#        329870
#
# Disc length: 4663 seconds
#
# Revision: 0
# Processed by: cddbd v1.5.1PL0 Copyright (c) Steve Scherf et al.
# Submitted via: ExactAudioCopy v0.95a5
#
DISCID=83123519
DTITLE=Various Artist - Roll 'Em Pete - 25 years of Piano Blues and Boogie 1928
DTITLE=1953 CD2
DYEAR=2004
DGENRE=Blues
TTITLE0=Joe Turner And Pete Johnson - Roll 'Em Pete
TTITLE1=Louise Johnson - All Night Long blues
TTITLE2=Lonnie Johnson - She Dont Know Who She Wants
TTITLE3=Black Ivory King - The flying Crow
TTITLE4=Turner Parrish - Trenches
TTITLE5=Leroy Carr - Papa Wants To Knock A Jug
TTITLE6=Cripple Clarence Lofton - Strut That Thing
TTITLE7=Lizzie Miles With Jelly Roll Morton - I Hate A Man Like You
TTITLE8=Romeo Nelson - Head Rag Hop
TTITLE9=Pinetop and Lindberg - Louisiana Bound
TTITLE10=Lee Green - Number Forty Four blues
TTITLE11=The Hokum boys and Jane Lucas - Hokum Stomp
TTITLE12=Lil Johnson - House Rent Scuffle
TTITLE13=Walter Roland - Jookit Jookit
TTITLE14=Kid Stormy Weather - Bread And Water Blues
TTITLE15=Charles Avery - Dearborn Street Breakdown
TTITLE16=John Oscar - Whoopee Mama blues
TTITLE17=Montana Taylor - Detroit Rocks
TTITLE18=Will Ezell - Heifer Dust
TTITLE19=Pete Johnson - Death Ray Boogie
TTITLE20=Peetie Wheatstraw - Shack Bully Stomp
TTITLE21=Charlie Spand - 45th St. Blues
TTITLE22=Piano Kid Edwards - Piano Kid Special
TTITLE23=Charley Taylor - Heavy Suitcase Blues
TTITLE24=Jimmy Yancey - Yancey Special
EXTD=
EXTT0=
EXTT1=
EXTT2=
EXTT3=
EXTT4=
EXTT5=
EXTT6=
EXTT7=
EXTT8=
EXTT9=
EXTT10=
EXTT11=
EXTT12=
EXTT13=
EXTT14=
EXTT15=
EXTT16=
EXTT17=
EXTT18=
EXTT19=
EXTT20=
EXTT21=
EXTT22=
EXTT23=
EXTT24=
PLAYORDER=
